<svg xmlns="http://www.w3.org/2000/svg" viewBox="0 0 72 24">
<path d="M26.2 11.5l3.4 7.1H27l-2.3-5.1-1.5 1.7.1 3.4H21v-12l2.3-.2-.1 5.3 4.3-5.2 1.7 1.4m5.1 4.3c-1.2 0-1.9 1.2-1.9 2.1 0 1.1.8 2.1 1.9 2.1 1.2 0 1.9-1.1 1.9-2.1 0-1.1-.8-2.1-1.9-2.1m4.1 2.1c0 2.5-1.6 4.4-4.2 4.4-2.5 0-4.2-1.9-4.2-4.4 0-2.5 1.6-4.4 4.2-4.4s4.2 1.9 4.2 4.4m14.4-6.4c0 .7-.6 1.3-1.3 1.3s-1.3-.6-1.3-1.3c0-.7.6-1.3 1.3-1.3s1.3.6 1.3 1.3zm-2.4 10.7v-8.2l2.3-.2v8.4h-2.3zM44 16.4c-1 0-1.9-1-1.9-2.1 0-1 .7-2.1 1.9-2.1 1.4 0 1.9 1.2 1.9 2.1 0 1-.7 2.1-1.9 2.1zm1.9-9.7v3.7c-.6-.3-1.2-.5-1.9-.5-2.4 0-4.1 2-4.1 4.3s1.7 4.4 4.1 4.4c.7 0 1.4-.2 1.9-.5v.4h2.3v-12l-2.3.2zm13.2 3.2c-.7 0-1.6.2-2 .7v-.8l-2.3.2v8.5H57v-4.8c0-.8.5-1.6 1.5-1.6 1.2 0 1.5.7 1.5 1.5v5h2.3V13c.1-1.6-1.2-3.1-3.2-3.1M72 14.4c0-.7-.2-1.4-.4-2h.5v-2.3L68 10h-.1c-2.5 0-4.2 2-4.2 4.4s1.7 4.3 4.2 4.3c.5 0 1.5-.2 1.5-.2.4.2.5.6.5 1.2 0 1-.8 2-1.9 2-1 0-1.7-.7-1.9-1.7l-2.2.2c.1.9.6 1.8 1.2 2.5.8.8 1.8 1.3 2.9 1.3s2.1-.4 3-1.3c.1-.1 1.1-1.1 1.1-3 0-1-.4-1.9-1-2.6.6-.8.9-1.7.9-2.7zm-4.2 2.1c-1.1 0-1.9-1-1.9-2.1 0-1 .7-2.1 1.9-2.1s1.9 1.1 1.9 2.1c0 .9-.7 2.1-1.9 2.1zM10.1 7.7l-2.3.2 2.1 4.4-2 4.3 2.2.2 2.1-4.6m-6.7 1.6c-.6 0-1.1.5-1.1 1.1S5 16 5.5 16s1.1-.5 1.1-1.1-.5-1.1-1.1-1.1m0-3.6c-.6 0-1.1.5-1.1 1.1 0 .6.5 1.1 1.1 1.1s1.1-.5 1.1-1.1c0-.6-.5-1.1-1.1-1.1"></path>
<path d="M12.6 0H4C1.8 0 .1 1.8.1 4v16c0 2.2 1.7 4 3.9 4h8.6c2.1 0 3.9-1.8 3.9-3.9V4c0-2.2-1.8-4-3.9-4zm1.6 19.8c0 1.1-.8 1.9-1.9 1.9H4.2c-1 0-1.9-.9-1.9-1.9V4.2c0-1.1.8-1.9 1.9-1.9h8.2c1 0 1.9.9 1.9 1.9v15.6z"></path>
</svg>